<svg id="Layer_1" data-name="Layer 1" xmlns="http://www.w3.org/2000/svg" viewBox="0 0 249.5 178.12"><title>cooter</title><path d="M235.36,181.05c5,9.8,1.24,18-18.67,18s-22.37-9.8-22.37-9.8l-.44-4.17a6.3,6.3,0,0,0-6.26-5.64h-25.2a6.29,6.29,0,0,0-6.16,7.6,51,51,0,0,0,3.92,12c5,9.81,1.25,18-18.66,18s-22.37-9.81-22.37-9.81S119,186,115,181s-31.46-19.85-37-34.27c-6.13-15.92,8.17-18,26.15-18s19.61-6.53,19.61-21.24S97.61,76.46,73.1,76.46s-42.49,9.8-42.49,39.22c0,20,7.75,28.58,14.71,42.49,3.27,6.54,4.9,18,4.08,21.24h0l-2.91,27.78S44,217,24.12,217,.51,208.83,5.48,199a54.09,54.09,0,0,0,3.81-12.3,42.4,42.4,0,0,0-.86-21.31,87.18,87.18,0,0,1-4-26c0-55.52,52.31-100.51,116.85-100.51s116.84,45,116.84,100.51q0,1.06,0,2.13a5.93,5.93,0,0,0,5.11,6l7.14,1a3.05,3.05,0,0,1,.8,5.82l-12,5.26a9.47,9.47,0,0,0-5.38,6.36c-.05.19-.1.4-.17.62a18.32,18.32,0,0,0,.41,11.5C234.43,179.1,234.88,180.11,235.36,181.05Z" transform="translate(-3.5 -38.87)"/><circle cx="82.68" cy="60.46" r="9.81"/></svg>