<svg id="Layer_1" data-name="Layer 1" xmlns="http://www.w3.org/2000/svg" viewBox="0 0 256 256"><defs><style>.cls-1{fill:#40c057;}</style></defs><title>favicon</title><path class="cls-1" d="M128,0A128,128,0,1,0,256,128,128,128,0,0,0,128,0Zm99.52,149.24-9.7,4.24a7.64,7.64,0,0,0-4.34,5.14l-.14.5a14.76,14.76,0,0,0,.33,9.29,25.6,25.6,0,0,0,1.08,2.42c4,7.92,1,14.52-15.07,14.52s-18.07-7.92-18.07-7.92l-.35-3.37a5.1,5.1,0,0,0-5.06-4.55H155.85a5.08,5.08,0,0,0-5,6.14,41.34,41.34,0,0,0,3.17,9.7c4,7.92,1,14.51-15.07,14.51S120.9,192,120.9,192s-.12-17.12-3.35-21.16-25.41-16-29.88-27.68c-5-12.85,6.6-14.51,21.11-14.51s15.84-5.28,15.84-17.16S103.5,86.36,83.71,86.36,49.39,94.28,49.39,118c0,16.19,6.26,23.08,11.88,34.31,2.64,5.28,4,14.52,3.3,17.16L62.22,192s-2,7.91-18.07,7.91-19.07-6.59-15.06-14.51a43.31,43.31,0,0,0,3.09-9.94,34.27,34.27,0,0,0-.7-17.21,70.44,70.44,0,0,1-3.2-21C28.28,92.34,70.52,56,122.64,56S217,92.34,217,137.17c0,.58,0,1.15,0,1.73a4.78,4.78,0,0,0,4.12,4.82l5.77.81A2.47,2.47,0,0,1,227.52,149.24ZM86.35,104.84a7.92,7.92,0,1,1,7.92,7.92A7.93,7.93,0,0,1,86.35,104.84Z"/></svg>